HIERARCHY
ROOT reference
{
  OFFSET 0 0 0
  CHANNELS 6 Xposition Yposition Zposition Zrotation Xrotation Yrotation
  JOINT Hips
  {
    OFFSET -3.25873 61.6975 92.532
    CHANNELS 6 Xposition Yposition Zposition Zrotation Xrotation Yrotation
    JOINT Spine
    {
      OFFSET 0 7.76127 0
      CHANNELS 6 Xposition Yposition Zposition Zrotation Xrotation Yrotation
      JOINT Spine1
      {
        OFFSET 0 24.7858 0
        CHANNELS 6 Xposition Yposition Zposition Zrotation Xrotation Yrotation
        JOINT Neck
        {
          OFFSET 0 24.684 2.244
          CHANNELS 6 Xposition Yposition Zposition Zrotation Xrotation Yrotation
          JOINT Head
          {
            OFFSET 0 13.2509 -1.89299
            CHANNELS 6 Xposition Yposition Zposition Zrotation Xrotation Yrotation
            End Site
            {
              OFFSET 0 23.6624 0
            }
          }
        }
        JOINT LeftShoulder
        {
          OFFSET 3.79413 23.4442 -0.177979
          CHANNELS 6 Xposition Yposition Zposition Zrotation Xrotation Yrotation
          JOINT LeftArm
          {
            OFFSET 9.21107 0 0
            CHANNELS 6 Xposition Yposition Zposition Zrotation Xrotation Yrotation
            JOINT LeftForeArm
            {
              OFFSET 34.3528 0 0
              CHANNELS 6 Xposition Yposition Zposition Zrotation Xrotation Yrotation
              JOINT LeftHand
              {
                OFFSET 25.4606 0 0
                CHANNELS 6 Xposition Yposition Zposition Zrotation Xrotation Yrotation
                End Site
                {
                  OFFSET 14.1974 0 0
                }
              }
            }
          }
        }
        JOINT RightShoulder
        {
          OFFSET -3.76739 23.4442 -0.177979
          CHANNELS 6 Xposition Yposition Zposition Zrotation Xrotation Yrotation
          JOINT RightArm
          {
            OFFSET -9.21107 0 0
            CHANNELS 6 Xposition Yposition Zposition Zrotation Xrotation Yrotation
            JOINT RightForeArm
            {
              OFFSET -34.3528 0 0
              CHANNELS 6 Xposition Yposition Zposition Zrotation Xrotation Yrotation
              JOINT RightHand
              {
                OFFSET -25.4606 0 0
                CHANNELS 6 Xposition Yposition Zposition Zrotation Xrotation Yrotation
                End Site
                {
                  OFFSET -14.1974 0 0
                }
              }
            }
          }
        }
      }
    }
    JOINT LeftUpLeg
    {
      OFFSET 9.46496 0 0
      CHANNELS 6 Xposition Yposition Zposition Zrotation Xrotation Yrotation
      JOINT LeftLeg
      {
        OFFSET 0 -36.0737 0
        CHANNELS 6 Xposition Yposition Zposition Zrotation Xrotation Yrotation
        JOINT LeftFoot
        {
          OFFSET 0 -40.8088 0
          CHANNELS 6 Xposition Yposition Zposition Zrotation Xrotation Yrotation
          JOINT LeftToeBase
          {
            OFFSET 0 -6.15222 14.1974
            CHANNELS 6 Xposition Yposition Zposition Zrotation Xrotation Yrotation
            End Site
            {
              OFFSET 0 0 3.78598
            }
          }
        }
      }
    }
    JOINT RightUpLeg
    {
      OFFSET -9.46496 0 0
      CHANNELS 6 Xposition Yposition Zposition Zrotation Xrotation Yrotation
      JOINT RightLeg
      {
        OFFSET 0 -36.0737 0
        CHANNELS 6 Xposition Yposition Zposition Zrotation Xrotation Yrotation
        JOINT RightFoot
        {
          OFFSET 0 -40.8088 0
          CHANNELS 6 Xposition Yposition Zposition Zrotation Xrotation Yrotation
          JOINT RightToeBase
          {
            OFFSET 0 -6.15222 14.1974
            CHANNELS 6 Xposition Yposition Zposition Zrotation Xrotation Yrotation
            End Site
            {
              OFFSET 0 0 3.78598
            }
          }
        }
      }
    }
  }
}
MOTION
Frames:	9
Frame Time:	0.004
0 0 0 0 0 -0 -19.4887 60.9759 -128.669 -0.806915 -9.18534 -21.6533 0 7.76127 2.84217e-014 4.26015 42.8234 -8.47472 0 24.7858 -1.42109e-014 -4.49917 10.7712 -6.37915 -1.42109e-014 24.684 2.244 7.5686 12.5919 11.6986 -7.10543e-015 13.2509 -1.89299 -19.8444 -25.0306 4.87117 3.79413 23.4442 -0.177979 -4.74566 2.3658 -15.4393 9.21107 1.42109e-014 -2.84217e-014 -26.2482 26.6098 2.69326 34.3528 1.42109e-014 0 52.9968 -37.9312 -28.4079 25.4606 -7.10543e-015 0 56.1871 -17.7415 15.7525 -3.76739 23.4442 -0.177979 7.76087 8.65896 -1.23437 -9.21107 -1.42109e-014 0 29.4159 11.3544 6.01685 -34.3528 7.10543e-015 0 -26.1195 -44.2521 117.721 -25.4606 0 7.10543e-015 -21.1206 -1.22373 -9.90206 9.46496 0 1.42109e-014 15.4569 -53.8784 16.4467 0 -36.0737 0 -175.121 79.2148 178.587 -3.55271e-015 -40.8088 -1.42109e-014 7.10096 -18.0063 3.68427 0 -6.15222 14.1974 -7.95139e-016 3.18055e-015 3.18055e-015 -9.46496 0 1.42109e-014 -4.19402 -36.8041 -4.70588 0 -36.0737 7.10543e-015 48.231 75.3085 -33.5379 0 -40.8088 1.42109e-014 -43.4531 -29.7151 -43.6402 -1.42109e-014 -6.15222 14.1974 -1.19271e-015 7.95139e-016 -3.18055e-015 
0 0 0 0 0 -0 -19.4767 61.0277 -128.532 -0.955306 -9.38249 -21.7718 0 7.76127 1.42109e-014 4.22637 43.1361 -8.40775 -1.42109e-014 24.7858 -1.42109e-014 -4.38544 10.7157 -6.32498 0 24.684 2.244 7.54599 12.601 11.7209 0 13.2509 -1.89299 -19.9318 -25.0367 4.8634 3.79413 23.4442 -0.177979 -4.87124 2.29261 -15.4937 9.21107 1.42109e-014 0 -26.1957 26.5937 2.7768 34.3528 0 1.42109e-014 52.9387 -37.9452 -28.4952 25.4606 7.10543e-015 -1.77636e-015 56.1427 -17.7704 15.6921 -3.76739 23.4442 -0.177979 7.73952 8.61779 -1.21367 -9.21107 0 1.42109e-014 29.2845 11.2578 6.10158 -34.3528 -7.10543e-015 0 -26.0955 -44.1867 117.725 -25.4606 0 0 -20.9912 -1.21969 -9.73577 9.46496 0 0 15.8317 -53.8447 16.7588 0 -36.0737 -7.10543e-015 -175.634 79.8255 178.202 3.55271e-015 -40.8088 2.84217e-014 6.79132 -17.7113 3.92474 -3.55271e-015 -6.15222 14.1974 2.38542e-015 -3.18055e-015 1.59028e-015 -9.46496 0 2.84217e-014 -4.1106 -36.4474 -4.62982 0 -36.0737 0 47.7653 75.4103 -32.9328 0 -40.8088 0 -43.3934 -29.7773 -43.5399 0 -6.15222 14.1974 1.39149e-015 2.98177e-015 -0 
0 0 0 0 0 -0 -19.3792 61.0202 -128.424 -0.701027 -9.17386 -21.8416 0 7.76127 -1.42109e-014 4.11929 42.8818 -8.32594 -1.42109e-014 24.7858 -1.42109e-014 -4.47151 10.6382 -6.29109 0 24.684 2.244 7.6295 12.6255 11.6765 7.10543e-015 13.2509 -1.89299 -20.0345 -24.9963 4.78559 3.79413 23.4442 -0.177979 -4.83654 2.48338 -15.5247 9.21107 0 1.42109e-014 -26.1339 26.6542 2.71881 34.3528 1.42109e-014 -1.42109e-014 53.1968 -38.0091 -28.315 25.4606 -7.10543e-015 0 56.0883 -17.8155 15.7978 -3.76739 23.4442 -0.177979 7.73221 8.71032 -1.22111 -9.21107 -1.42109e-014 0 29.1319 11.1965 6.18795 -34.3528 0 0 -26.1369 -44.2527 117.674 -25.4606 1.42109e-014 0 -21.0339 -1.28283 -9.69528 9.46496 0 0 16.0418 -54.395 17.0365 -3.55271e-015 -36.0737 0 -174.778 80.4184 177.208 3.55271e-015 -40.8088 -1.42109e-014 6.55423 -17.4751 3.66733 0 -6.15222 14.1974 0 0 -1.59028e-015 -9.46496 -1.42109e-014 -1.42109e-014 -4.41958 -36.8015 -4.66738 0 -36.0737 0 48.3418 75.568 -33.3832 -7.10543e-015 -40.8088 1.42109e-014 -43.3042 -29.8195 -43.5099 -1.42109e-014 -6.15222 14.1974 -2.98177e-015 4.77083e-015 -1.59028e-014 
0 0 0 0 0 -0 -19.3173 61.0462 -128.306 -0.622233 -9.16596 -21.8999 0 7.76127 0 4.0967 42.8695 -8.32077 1.42109e-014 24.7858 0 -4.5007 10.614 -6.29354 0 24.684 2.244 7.6171 12.6347 11.6963 0 13.2509 -1.89299 -20.0763 -24.9935 4.79289 3.79413 23.4442 -0.177979 -4.89548 2.32327 -15.5734 9.21107 1.42109e-014 1.42109e-014 -26.1581 26.7081 2.87814 34.3528 -1.42109e-014 0 53.1341 -38.0514 -28.414 25.4606 0 0 56.0368 -17.8686 15.7497 -3.76739 23.4442 -0.177979 7.61411 8.49366 -1.17738 -9.21107 2.84217e-014 0 29.1448 11.3413 6.19344 -34.3528 0 0 -26.1512 -44.2217 117.669 -25.4606 -1.42109e-014 0 -21.0796 -1.20676 -9.7211 9.46496 0 1.42109e-014 16.225 -54.6459 17.2425 0 -36.0737 -7.10543e-015 -174.238 81.1446 176.724 3.55271e-015 -40.8088 0 6.22542 -17.2667 3.22072 0 -6.15222 14.1974 1.98785e-015 1.59028e-015 -0 -9.46496 0 0 -4.57768 -36.8272 -4.73421 0 -36.0737 0 48.4038 75.6977 -33.4742 0 -40.8088 -1.42109e-014 -43.0796 -29.9395 -43.3555 -1.42109e-014 -6.15222 14.1974 -1.39149e-015 -3.97569e-016 -3.18055e-015 
0 0 0 0 0 -0 -19.3196 61.1226 -128.156 -0.852858 -9.42258 -22.0072 7.10543e-015 7.76127 1.42109e-014 4.17966 43.2797 -8.32544 0 24.7858 1.42109e-014 -4.433 10.5454 -6.2573 0 24.684 2.244 7.5344 12.6729 11.7033 -7.10543e-015 13.2509 -1.89299 -20.0469 -25.0563 4.80561 3.79413 23.4442 -0.177979 -5.0163 2.3372 -15.5652 9.21107 1.42109e-014 0 -25.995 26.4713 2.85335 34.3528 1.42109e-014 1.42109e-014 52.8436 -38.0325 -28.7156 25.4606 0 -3.55271e-015 56.0618 -17.8404 15.6254 -3.76739 23.4442 -0.177979 7.69 8.51305 -1.05012 -9.21107 0 0 28.9637 11.1573 6.20729 -34.3528 -1.42109e-014 0 -26.0916 -44.1425 117.739 -25.4606 0 -7.10543e-015 -21.0415 -1.15556 -9.69256 9.46496 0 1.42109e-014 16.5932 -54.4755 17.4897 0 -36.0737 7.10543e-015 -174.557 81.8286 176.975 -3.55271e-015 -40.8088 -1.42109e-014 5.8738 -17.0439 2.69834 -3.55271e-015 -6.15222 14.1974 1.19271e-015 1.59028e-015 -0 -9.46496 0 0 -4.42113 -36.3365 -4.6627 0 -36.0737 -7.10543e-015 47.8954 75.6766 -32.9846 7.10543e-015 -40.8088 0 -43.0218 -29.9523 -43.2798 -1.42109e-014 -6.15222 14.1974 3.97569e-016 2.78299e-015 -1.27222e-014 
0 0 0 0 0 -0 -19.2223 61.1223 -128.043 -0.574755 -9.28598 -21.9701 0 7.76127 1.42109e-014 4.10202 43.0351 -8.35088 0 24.7858 0 -4.47758 10.5351 -6.32002 0 24.684 2.244 7.51745 12.6369 11.7162 0 13.2509 -1.89299 -20.063 -24.9592 4.82794 3.79413 23.4442 -0.177979 -4.94216 2.38401 -15.5343 9.21107 1.42109e-014 0 -26.0176 26.3917 2.80224 34.3528 0 0 52.8537 -38.0287 -28.7259 25.4606 0 1.77636e-015 55.9325 -17.8777 15.5706 -3.76739 23.4442 -0.177979 7.57244 8.48251 -0.98949 -9.21107 -1.42109e-014 0 28.926 11.146 6.26907 -34.3528 7.10543e-015 2.84217e-014 -26.1003 -44.147 117.745 -25.4606 0 0 -21.013 -1.13974 -9.69777 9.46496 -1.42109e-014 0 16.5475 -54.9509 17.5329 0 -36.0737 7.10543e-015 -173.138 82.4596 175.481 0 -40.8088 1.42109e-014 5.46584 -16.7821 2.42878 0 -6.15222 14.1974 2.38542e-015 -1.59028e-015 -0 -9.46496 -2.84217e-014 1.42109e-014 -4.87448 -36.6093 -4.87816 0 -36.0737 -7.10543e-015 48.6334 75.7616 -33.6579 -7.10543e-015 -40.8088 0 -42.936 -29.9594 -43.4286 0 -6.15222 14.1974 -2.78299e-015 9.93923e-016 -6.36111e-015 
0 0 0 0 0 -0 -19.1765 61.1576 -127.914 -0.540785 -9.31766 -22.0321 -1.42109e-014 7.76127 0 4.10006 43.0997 -8.34888 0 24.7858 0 -4.51992 10.4839 -6.3142 1.42109e-014 24.684 2.244 7.57973 12.6226 11.7414 -7.10543e-015 13.2509 -1.89299 -20.142 -24.9302 4.82773 3.79413 23.4442 -0.177979 -4.92672 2.37662 -15.516 9.21107 0 0 -26.0149 26.3564 2.8218 34.3528 0 -1.42109e-014 52.8219 -38.0753 -28.8002 25.4606 -7.10543e-015 -1.77636e-015 55.9116 -17.9523 15.4873 -3.76739 23.4442 -0.177979 7.52004 8.26428 -0.976592 -9.21107 -1.42109e-014 0 28.9119 11.2754 6.28664 -34.3528 2.13163e-014 -2.84217e-014 -26.1059 -44.1034 117.732 -25.4606 1.42109e-014 0 -20.9583 -1.10373 -9.60008 9.46496 0 1.42109e-014 16.7823 -55.0986 17.7655 0 -36.0737 0 -172.27 83.1384 174.637 3.55271e-015 -40.8088 1.42109e-014 5.32975 -16.5672 1.89543 0 -6.15222 14.1974 7.95139e-016 1.59028e-015 1.59028e-015 -9.46496 0 0 -5.00501 -36.5358 -4.8792 0 -36.0737 1.42109e-014 48.8071 75.7894 -33.745 0 -40.8088 -1.42109e-014 -42.9098 -29.9756 -43.4887 -1.42109e-014 -6.15222 14.1974 -2.5842e-015 2.98177e-015 -1.27222e-014 
0 0 0 0 0 -0 -19.165 61.2206 -127.774 -0.685018 -9.48871 -22.1306 0 7.76127 -1.42109e-014 4.11696 43.3789 -8.32603 0 24.7858 -1.42109e-014 -4.44979 10.4325 -6.28156 0 24.684 2.244 7.57419 12.7271 11.7619 0 13.2509 -1.89299 -20.2649 -25.0702 4.78841 3.79413 23.4442 -0.177979 -5.12996 2.09606 -15.5929 9.21107 1.42109e-014 0 -25.9943 26.3966 3.07331 34.3528 0 0 52.658 -38.068 -29.0285 25.4606 1.42109e-014 0 55.802 -17.9101 15.4597 -3.76739 23.4442 -0.177979 7.57598 8.37059 -0.898654 -9.21107 0 1.42109e-014 28.7125 11.0463 6.38128 -34.3528 -7.10543e-015 0 -26.0463 -44.0426 117.785 -25.4606 1.42109e-014 7.10543e-015 -20.9097 -1.10008 -9.55412 9.46496 -1.42109e-014 0 17.0713 -55.0298 18.0146 3.55271e-015 -36.0737 7.10543e-015 -172.859 83.8021 175.04 3.55271e-015 -40.8088 0 4.86584 -16.2612 1.51845 3.55271e-015 -6.15222 14.1974 7.95139e-016 0 -1.59028e-015 -9.46496 -1.42109e-014 0 -4.92298 -36.2031 -4.80681 0 -36.0737 7.10543e-015 48.5366 75.8241 -33.447 0 -40.8088 1.42109e-014 -42.7221 -30.0208 -43.3772 1.42109e-014 -6.15222 14.1974 1.98785e-015 9.93923e-016 3.18055e-015 
0 0 0 0 0 -0 -19.0841 61.2288 -127.652 -0.472842 -9.35307 -22.1316 7.10543e-015 7.76127 0 4.072 43.1152 -8.33356 0 24.7858 -1.42109e-014 -4.51735 10.5018 -6.30888 0 24.684 2.244 7.58825 12.6828 11.7884 0 13.2509 -1.89299 -20.3051 -25.028 4.80541 3.79413 23.4442 -0.177979 -5.08318 2.12775 -15.5541 9.21107 0 0 -25.99 26.4682 3.04693 34.3528 0 0 52.7865 -38.1189 -28.9289 25.4606 -7.10543e-015 1.77636e-015 55.7914 -17.969 15.4895 -3.76739 23.4442 -0.177979 7.44957 8.14562 -0.898312 -9.21107 0 1.42109e-014 28.7376 11.2156 6.41919 -34.3528 0 -2.84217e-014 -25.972 -44.0295 117.83 -25.4606 0 7.10543e-015 -20.5011 -1.25121 -9.40078 9.46496 0 0 17.1373 -55.4087 18.1111 3.55271e-015 -36.0737 -7.10543e-015 -171.115 84.5365 173.213 0 -40.8088 0 4.66383 -16.0018 1.06215 -3.55271e-015 -6.15222 14.1974 1.19271e-015 1.59028e-015 -1.59028e-015 -9.46496 0 0 -5.25896 -36.4389 -4.96264 1.42109e-014 -36.0737 -7.10543e-015 48.8937 76.0074 -33.7428 -7.10543e-015 -40.8088 0 -42.5171 -30.1326 -43.221 0 -6.15222 14.1974 1.59028e-015 -1.78906e-015 3.18055e-015 
